<svg width="36" height="36" viewBox="0 0 36 36" fill="none" xmlns="http://www.w3.org/2000/svg">
<path fill-rule="evenodd" clip-rule="evenodd" d="M26.7768 12.0197C26.8967 12.1901 26.9998 12.3737 27.0839 12.5686C32.0438 13.9067 35.6952 18.3349 35.6952 23.5771C35.6952 29.8757 30.4243 35 23.9455 35C20.563 35 17.5104 33.6028 15.3646 31.3715H7.2193C5.46624 31.3715 4.03996 29.9849 4.03996 28.2806C4.03996 27.3018 4.51092 26.4283 5.24362 25.8616C4.51092 25.2949 4.03996 24.4215 4.03996 23.4426C4.03996 22.4638 4.51092 21.5904 5.24362 21.0237C4.51092 20.457 4.03996 19.5835 4.03996 18.6047C4.03996 17.6259 4.51092 16.7525 5.24362 16.1857C4.51092 15.619 4.03996 14.7456 4.03996 13.7668C4.03996 12.0625 5.46624 10.6759 7.2193 10.6759H9.02184C8.66991 10.1785 8.46339 9.57679 8.46339 8.92884C8.46339 8.28089 8.66998 7.67917 9.02184 7.18181H3.48703C1.73397 7.18181 0.307693 5.7952 0.307693 4.0909C0.307693 2.38661 1.73397 1 3.48703 1H20.4205C22.1735 1 23.5998 2.38661 23.5998 4.0909C23.5998 4.73885 23.3932 5.34057 23.0413 5.83794H28.5762C30.3292 5.83794 31.7555 7.22454 31.7555 8.92884C31.7555 10.6331 30.3292 12.0197 28.5762 12.0197H26.7768ZM30.3732 8.92884C30.3732 7.96555 29.5671 7.18181 28.5762 7.18181H11.6427C10.6518 7.18181 9.84571 7.96555 9.84571 8.92884C9.84571 9.89213 10.6518 10.6759 11.6427 10.6759H24.1527H28.5762C29.5671 10.6759 30.3732 9.89213 30.3732 8.92884ZM1.69001 4.0909C1.69001 5.05419 2.49611 5.83794 3.48703 5.83794H20.4205C21.4114 5.83794 22.2175 5.05419 22.2175 4.0909C22.2175 3.12762 21.4114 2.34387 20.4205 2.34387H3.48703C2.49611 2.34387 1.69001 3.12762 1.69001 4.0909ZM24.1527 12.0197H7.2193C6.22845 12.0197 5.42228 12.8035 5.42228 13.7668C5.42228 14.7301 6.22845 15.5138 7.2193 15.5138H15.6309C17.7592 13.4395 20.7008 12.1542 23.9455 12.1542C24.2794 12.1542 24.6099 12.1686 24.9369 12.1953C24.6977 12.0826 24.4311 12.0197 24.1527 12.0197ZM14.4499 16.8577H7.2193C6.22838 16.8577 5.42228 17.6414 5.42228 18.6047C5.42228 19.5681 6.22838 20.3517 7.2193 20.3517H12.6734C13.0586 19.0814 13.6653 17.9027 14.4499 16.8577ZM12.356 21.6956H7.2193C6.22838 21.6956 5.42228 22.4793 5.42228 23.4426C5.42228 24.406 6.22838 25.1897 7.2193 25.1897H12.3134C12.2364 24.6627 12.1957 24.1245 12.1957 23.5771C12.1957 22.9363 12.2512 22.3079 12.356 21.6956ZM5.42228 28.2806C5.42228 29.2439 6.22838 30.0276 7.2193 30.0276H14.2539C13.5109 28.9758 12.9443 27.7977 12.5956 26.5335H7.2193C6.22838 26.5335 5.42228 27.3172 5.42228 28.2806ZM13.578 23.5771C13.578 29.1347 18.2289 33.6561 23.9455 33.6561C29.662 33.6561 34.3129 29.1347 34.3129 23.5771C34.3129 18.0195 29.662 13.4981 23.9455 13.4981C18.2289 13.4981 13.578 18.0195 13.578 23.5771ZM22.1824 21.2802C22.1824 22.0967 22.9718 22.7609 23.9421 22.7609C25.7945 22.7609 27.3016 24.1228 27.3016 25.7969C27.3016 27.2219 26.2094 28.42 24.742 28.7452V29.0811C24.742 29.5105 24.3838 29.8588 23.9421 29.8588C23.5005 29.8588 23.1423 29.5105 23.1423 29.0811V28.7452C21.6748 28.42 20.5827 27.2219 20.5827 25.7969C20.5827 25.3675 20.9409 25.0193 21.3826 25.0193C21.8243 25.0193 22.1824 25.3675 22.1824 25.7969C22.1824 26.6134 22.9718 27.2776 23.9421 27.2776C24.9125 27.2776 25.7018 26.6134 25.7018 25.7969C25.7018 24.9804 24.9125 24.3161 23.9421 24.3161C22.0897 24.3161 20.5827 22.9542 20.5827 21.2802C20.5827 19.8553 21.6748 18.6571 23.1423 18.3319V17.9275C23.1423 17.4981 23.5005 17.1499 23.9421 17.1499C24.3838 17.1499 24.742 17.4981 24.742 17.9275V18.3319C26.2094 18.6571 27.3016 19.8553 27.3016 21.2802C27.3016 21.7096 26.9434 22.0579 26.5017 22.0579C26.06 22.0579 25.7018 21.7096 25.7018 21.2802C25.7018 20.4637 24.9125 19.7995 23.9421 19.7995C22.9718 19.7995 22.1824 20.4637 22.1824 21.2802Z" fill="#FF872C"/>
<path d="M27.0839 12.5686L26.8543 12.6677L26.9022 12.7785L27.0188 12.8099L27.0839 12.5686ZM26.7768 12.0197V11.7697H26.2951L26.5724 12.1637L26.7768 12.0197ZM15.3646 31.3715L15.5448 31.1982L15.4711 31.1215H15.3646V31.3715ZM5.24362 25.8616L5.39657 26.0594L5.65224 25.8616L5.39657 25.6639L5.24362 25.8616ZM5.24362 21.0237L5.39657 21.2214L5.65224 21.0237L5.39657 20.8259L5.24362 21.0237ZM5.24362 16.1857L5.39657 16.3835L5.65224 16.1857L5.39657 15.988L5.24362 16.1857ZM9.02184 10.6759V10.9259H9.505L9.22592 10.5315L9.02184 10.6759ZM9.02184 7.18181L9.22593 7.32619L9.50495 6.93181H9.02184V7.18181ZM23.0413 5.83794L22.8373 5.69355L22.5582 6.08794H23.0413V5.83794ZM15.6309 15.5138V15.7638H15.7325L15.8053 15.6928L15.6309 15.5138ZM24.9369 12.1953L24.9165 12.4444L25.0434 11.9691L24.9369 12.1953ZM14.4499 16.8577L14.6498 17.0078L14.9502 16.6077H14.4499V16.8577ZM12.6734 20.3517V20.6017H12.8588L12.9126 20.4243L12.6734 20.3517ZM12.356 21.6956L12.6024 21.7378L12.6524 21.4456H12.356V21.6956ZM12.3134 25.1897V25.4397H12.6025L12.5607 25.1536L12.3134 25.1897ZM14.2539 30.0276V30.2776H14.7365L14.4581 29.8834L14.2539 30.0276ZM12.5956 26.5335L12.8366 26.4671L12.7859 26.2835H12.5956V26.5335ZM24.742 28.7452L24.6879 28.5011L24.492 28.5445V28.7452H24.742ZM23.1423 28.7452H23.3923V28.5445L23.1964 28.5011L23.1423 28.7452ZM23.1423 18.3319L23.1964 18.576L23.3923 18.5326V18.3319H23.1423ZM24.742 18.3319H24.492V18.5326L24.6879 18.576L24.742 18.3319ZM27.3134 12.4695C27.2225 12.2589 27.111 12.0602 26.9812 11.8758L26.5724 12.1637C26.6824 12.3199 26.777 12.4886 26.8543 12.6677L27.3134 12.4695ZM35.9452 23.5771C35.9452 18.2145 32.2107 13.6928 27.149 12.3272L27.0188 12.8099C31.8768 14.1206 35.4452 18.4552 35.4452 23.5771H35.9452ZM23.9455 35.25C30.5556 35.25 35.9452 30.0204 35.9452 23.5771H35.4452C35.4452 29.731 30.2929 34.75 23.9455 34.75V35.25ZM15.1844 31.5448C17.376 33.8237 20.4931 35.25 23.9455 35.25V34.75C20.6329 34.75 17.6448 33.3819 15.5448 31.1982L15.1844 31.5448ZM7.2193 31.6215H15.3646V31.1215H7.2193V31.6215ZM3.78996 28.2806C3.78996 30.1295 5.33486 31.6215 7.2193 31.6215V31.1215C5.59762 31.1215 4.28996 29.8402 4.28996 28.2806H3.78996ZM5.09066 25.6639C4.30101 26.2746 3.78996 27.2192 3.78996 28.2806H4.28996C4.28996 27.3844 4.72082 26.582 5.39657 26.0594L5.09066 25.6639ZM3.78996 23.4426C3.78996 24.5041 4.30101 25.4486 5.09066 26.0594L5.39657 25.6639C4.72082 25.1412 4.28996 24.3388 4.28996 23.4426H3.78996ZM5.09066 20.8259C4.30101 21.4367 3.78996 22.3812 3.78996 23.4426H4.28996C4.28996 22.5465 4.72082 21.7441 5.39657 21.2214L5.09066 20.8259ZM3.78996 18.6047C3.78996 19.6661 4.30101 20.6107 5.09066 21.2214L5.39657 20.8259C4.72082 20.3033 4.28996 19.5009 4.28996 18.6047H3.78996ZM5.09066 15.988C4.30101 16.5987 3.78996 17.5433 3.78996 18.6047H4.28996C4.28996 17.7085 4.72082 16.9062 5.39657 16.3835L5.09066 15.988ZM3.78996 13.7668C3.78996 14.8282 4.30101 15.7727 5.09066 16.3835L5.39657 15.988C4.72082 15.4653 4.28996 14.663 4.28996 13.7668H3.78996ZM7.2193 10.4259C5.33486 10.4259 3.78996 11.9178 3.78996 13.7668H4.28996C4.28996 12.2071 5.59762 10.9259 7.2193 10.9259V10.4259ZM9.02184 10.4259H7.2193V10.9259H9.02184V10.4259ZM8.21339 8.92884C8.21339 9.63092 8.43737 10.2827 8.81777 10.8203L9.22592 10.5315C8.90244 10.0743 8.71339 9.52265 8.71339 8.92884H8.21339ZM8.81775 7.03742C8.43745 7.57498 8.21339 8.22674 8.21339 8.92884H8.71339C8.71339 8.33504 8.9025 7.78337 9.22593 7.32619L8.81775 7.03742ZM3.48703 7.43181H9.02184V6.93181H3.48703V7.43181ZM0.0576935 4.0909C0.0576935 5.93987 1.6026 7.43181 3.48703 7.43181V6.93181C1.86535 6.93181 0.557693 5.65053 0.557693 4.0909H0.0576935ZM3.48703 0.75C1.6026 0.75 0.0576935 2.24193 0.0576935 4.0909H0.557693C0.557693 2.53128 1.86535 1.25 3.48703 1.25V0.75ZM20.4205 0.75H3.48703V1.25H20.4205V0.75ZM23.8498 4.0909C23.8498 2.24193 22.3049 0.75 20.4205 0.75V1.25C22.0421 1.25 23.3498 2.53128 23.3498 4.0909H23.8498ZM23.2454 5.98232C23.6257 5.44476 23.8498 4.793 23.8498 4.0909H23.3498C23.3498 4.6847 23.1607 5.23637 22.8373 5.69355L23.2454 5.98232ZM28.5762 5.58794H23.0413V6.08794H28.5762V5.58794ZM32.0055 8.92884C32.0055 7.07987 30.4606 5.58794 28.5762 5.58794V6.08794C30.1978 6.08794 31.5055 7.36921 31.5055 8.92884H32.0055ZM28.5762 12.2697C30.4606 12.2697 32.0055 10.7778 32.0055 8.92884H31.5055C31.5055 10.4885 30.1978 11.7697 28.5762 11.7697V12.2697ZM26.7768 12.2697H28.5762V11.7697H26.7768V12.2697ZM28.5762 7.43181C29.4357 7.43181 30.1232 8.11022 30.1232 8.92884H30.6232C30.6232 7.82089 29.6985 6.93181 28.5762 6.93181V7.43181ZM11.6427 7.43181H28.5762V6.93181H11.6427V7.43181ZM10.0957 8.92884C10.0957 8.11022 10.7832 7.43181 11.6427 7.43181V6.93181C10.5204 6.93181 9.59571 7.82089 9.59571 8.92884H10.0957ZM11.6427 10.4259C10.7832 10.4259 10.0957 9.74746 10.0957 8.92884H9.59571C9.59571 10.0368 10.5204 10.9259 11.6427 10.9259V10.4259ZM24.1527 10.4259H11.6427V10.9259H24.1527V10.4259ZM28.5762 10.4259H24.1527V10.9259H28.5762V10.4259ZM30.1232 8.92884C30.1232 9.74746 29.4357 10.4259 28.5762 10.4259V10.9259C29.6985 10.9259 30.6232 10.0368 30.6232 8.92884H30.1232ZM3.48703 5.58794C2.6275 5.58794 1.94001 4.90952 1.94001 4.0909H1.44001C1.44001 5.19886 2.36473 6.08794 3.48703 6.08794V5.58794ZM20.4205 5.58794H3.48703V6.08794H20.4205V5.58794ZM21.9675 4.0909C21.9675 4.90952 21.28 5.58794 20.4205 5.58794V6.08794C21.5428 6.08794 22.4675 5.19886 22.4675 4.0909H21.9675ZM20.4205 2.59387C21.28 2.59387 21.9675 3.27228 21.9675 4.0909H22.4675C22.4675 2.98295 21.5428 2.09387 20.4205 2.09387V2.59387ZM3.48703 2.59387H20.4205V2.09387H3.48703V2.59387ZM1.94001 4.0909C1.94001 3.27228 2.6275 2.59387 3.48703 2.59387V2.09387C2.36473 2.09387 1.44001 2.98295 1.44001 4.0909H1.94001ZM7.2193 12.2697H24.1527V11.7697H7.2193V12.2697ZM5.67228 13.7668C5.67228 12.9482 6.35983 12.2697 7.2193 12.2697V11.7697C6.09707 11.7697 5.17228 12.6588 5.17228 13.7668H5.67228ZM7.2193 15.2638C6.35983 15.2638 5.67228 14.5854 5.67228 13.7668H5.17228C5.17228 14.8747 6.09707 15.7638 7.2193 15.7638V15.2638ZM15.6309 15.2638H7.2193V15.7638H15.6309V15.2638ZM23.9455 11.9042C20.6338 11.9042 17.6301 13.2163 15.4564 15.3348L15.8053 15.6928C17.8883 13.6628 20.7678 12.4042 23.9455 12.4042V11.9042ZM24.9572 11.9461C24.6239 11.9189 24.2866 11.9042 23.9455 11.9042V12.4042C24.2722 12.4042 24.596 12.4183 24.9165 12.4444L24.9572 11.9461ZM24.1527 12.2697C24.3933 12.2697 24.6236 12.3241 24.8303 12.4214L25.0434 11.9691C24.7719 11.8412 24.469 11.7697 24.1527 11.7697V12.2697ZM7.2193 17.1077H14.4499V16.6077H7.2193V17.1077ZM5.67228 18.6047C5.67228 17.7861 6.35976 17.1077 7.2193 17.1077V16.6077C6.097 16.6077 5.17228 17.4968 5.17228 18.6047H5.67228ZM7.2193 20.1017C6.35976 20.1017 5.67228 19.4234 5.67228 18.6047H5.17228C5.17228 19.7127 6.09701 20.6017 7.2193 20.6017V20.1017ZM12.6734 20.1017H7.2193V20.6017H12.6734V20.1017ZM14.2499 16.7076C13.4483 17.7753 12.8281 18.9802 12.4341 20.2792L12.9126 20.4243C13.2892 19.1827 13.8822 18.0301 14.6498 17.0078L14.2499 16.7076ZM7.2193 21.9456H12.356V21.4456H7.2193V21.9456ZM5.67228 23.4426C5.67228 22.624 6.35976 21.9456 7.2193 21.9456V21.4456C6.09701 21.4456 5.17228 22.3346 5.17228 23.4426H5.67228ZM7.2193 24.9397C6.35976 24.9397 5.67228 24.2613 5.67228 23.4426H5.17228C5.17228 24.5507 6.09701 25.4397 7.2193 25.4397V24.9397ZM12.3134 24.9397H7.2193V25.4397H12.3134V24.9397ZM11.9457 23.5771C11.9457 24.1369 11.9874 24.6872 12.066 25.2258L12.5607 25.1536C12.4855 24.6382 12.4457 24.112 12.4457 23.5771H11.9457ZM12.1096 21.6534C12.0024 22.2794 11.9457 22.9218 11.9457 23.5771H12.4457C12.4457 22.9507 12.4999 22.3365 12.6024 21.7378L12.1096 21.6534ZM7.2193 29.7776C6.35976 29.7776 5.67228 29.0993 5.67228 28.2806H5.17228C5.17228 29.3886 6.09701 30.2776 7.2193 30.2776V29.7776ZM14.2539 29.7776H7.2193V30.2776H14.2539V29.7776ZM12.3546 26.6C12.7112 27.8927 13.2905 29.0971 14.0497 30.1718L14.4581 29.8834C13.7313 28.8545 13.1774 27.7026 12.8366 26.4671L12.3546 26.6ZM7.2193 26.7835H12.5956V26.2835H7.2193V26.7835ZM5.67228 28.2806C5.67228 27.4619 6.35976 26.7835 7.2193 26.7835V26.2835C6.09701 26.2835 5.17228 27.1726 5.17228 28.2806H5.67228ZM23.9455 33.4061C18.3602 33.4061 13.828 28.99 13.828 23.5771H13.328C13.328 29.2794 18.0975 33.9061 23.9455 33.9061V33.4061ZM34.0629 23.5771C34.0629 28.99 29.5307 33.4061 23.9455 33.4061V33.9061C29.7934 33.9061 34.5629 29.2794 34.5629 23.5771H34.0629ZM23.9455 13.7481C29.5307 13.7481 34.0629 18.1642 34.0629 23.5771H34.5629C34.5629 17.8748 29.7934 13.2481 23.9455 13.2481V13.7481ZM13.828 23.5771C13.828 18.1642 18.3602 13.7481 23.9455 13.7481V13.2481C18.0975 13.2481 13.328 17.8748 13.328 23.5771H13.828ZM23.9421 22.5109C23.0677 22.5109 22.4324 21.9199 22.4324 21.2802H21.9324C21.9324 22.2734 22.8759 23.0109 23.9421 23.0109V22.5109ZM27.5516 25.7969C27.5516 23.9615 25.9082 22.5109 23.9421 22.5109V23.0109C25.6809 23.0109 27.0516 24.2841 27.0516 25.7969H27.5516ZM24.7961 28.9893C26.3584 28.6431 27.5516 27.358 27.5516 25.7969H27.0516C27.0516 27.0857 26.0605 28.197 24.6879 28.5011L24.7961 28.9893ZM24.992 29.0811V28.7452H24.492V29.0811H24.992ZM23.9421 30.1088C24.5152 30.1088 24.992 29.6552 24.992 29.0811H24.492C24.492 29.3659 24.2524 29.6088 23.9421 29.6088V30.1088ZM22.8923 29.0811C22.8923 29.6552 23.3691 30.1088 23.9421 30.1088V29.6088C23.6318 29.6088 23.3923 29.3659 23.3923 29.0811H22.8923ZM22.8923 28.7452V29.0811H23.3923V28.7452H22.8923ZM20.3327 25.7969C20.3327 27.358 21.5259 28.6431 23.0882 28.9893L23.1964 28.5011C21.8238 28.197 20.8327 27.0857 20.8327 25.7969H20.3327ZM21.3826 24.7693C20.8095 24.7693 20.3327 25.2228 20.3327 25.7969H20.8327C20.8327 25.5121 21.0723 25.2693 21.3826 25.2693V24.7693ZM22.4324 25.7969C22.4324 25.2228 21.9556 24.7693 21.3826 24.7693V25.2693C21.6929 25.2693 21.9324 25.5121 21.9324 25.7969H22.4324ZM23.9421 27.0276C23.0677 27.0276 22.4324 26.4366 22.4324 25.7969H21.9324C21.9324 26.7901 22.8759 27.5276 23.9421 27.5276V27.0276ZM25.4518 25.7969C25.4518 26.4366 24.8166 27.0276 23.9421 27.0276V27.5276C25.0084 27.5276 25.9518 26.7901 25.9518 25.7969H25.4518ZM23.9421 24.5661C24.8166 24.5661 25.4518 25.1571 25.4518 25.7969H25.9518C25.9518 24.8036 25.0084 24.0661 23.9421 24.0661V24.5661ZM20.3327 21.2802C20.3327 23.1155 21.9761 24.5661 23.9421 24.5661V24.0661C22.2034 24.0661 20.8327 22.7929 20.8327 21.2802H20.3327ZM23.0882 18.0878C21.5259 18.4341 20.3327 19.7191 20.3327 21.2802H20.8327C20.8327 19.9915 21.8238 18.8802 23.1964 18.576L23.0882 18.0878ZM22.8923 17.9275V18.3319H23.3923V17.9275H22.8923ZM23.9421 16.8999C23.3691 16.8999 22.8923 17.3534 22.8923 17.9275H23.3923C23.3923 17.6427 23.6318 17.3999 23.9421 17.3999V16.8999ZM24.992 17.9275C24.992 17.3534 24.5152 16.8999 23.9421 16.8999V17.3999C24.2524 17.3999 24.492 17.6427 24.492 17.9275H24.992ZM24.992 18.3319V17.9275H24.492V18.3319H24.992ZM27.5516 21.2802C27.5516 19.7191 26.3584 18.4341 24.7961 18.0878L24.6879 18.576C26.0605 18.8802 27.0516 19.9915 27.0516 21.2802H27.5516ZM26.5017 22.3079C27.0748 22.3079 27.5516 21.8543 27.5516 21.2802H27.0516C27.0516 21.565 26.812 21.8079 26.5017 21.8079V22.3079ZM25.4518 21.2802C25.4518 21.8543 25.9286 22.3079 26.5017 22.3079V21.8079C26.1914 21.8079 25.9518 21.565 25.9518 21.2802H25.4518ZM23.9421 20.0495C24.8166 20.0495 25.4518 20.6405 25.4518 21.2802H25.9518C25.9518 20.287 25.0084 19.5495 23.9421 19.5495V20.0495ZM22.4324 21.2802C22.4324 20.6405 23.0677 20.0495 23.9421 20.0495V19.5495C22.8759 19.5495 21.9324 20.287 21.9324 21.2802H22.4324Z" fill="#FF872C"/>
</svg>
